<svg role="img" viewBox="0 0 24 24" xmlns="http://www.w3.org/2000/svg"><title>SoundCloud</title><path d="M1.175 12.225c-.051 0-.094.046-.101.1l-.233 2.154.233 2.105c.007.058.05.098.101.098.05 0 .09-.04.099-.098l.255-2.105-.27-2.154c0-.057-.045-.1-.09-.1m-.899.828c-.06 0-.091.037-.104.094L0 14.479l.165 1.308c0 .055.045.094.09.094s.089-.039.104-.094l.21-1.308-.21-1.332c0-.057-.045-.094-.09-.094m1.83-1.229c-.061 0-.12.045-.12.104l-.21 2.563.225 2.458c0 .06.045.12.119.12.061 0 .105-.061.121-.12l.254-2.474-.254-2.548c-.016-.06-.061-.12-.121-.12m.945-.089c-.075 0-.135.06-.15.135l-.193 2.64.21 2.544c.016.077.075.138.149.138.075 0 .135-.061.15-.135l.24-2.544-.24-2.625c0-.075-.06-.135-.135-.135m.959-.166c-.09 0-.15.074-.165.148l-.195 2.79.209 2.63c.016.09.075.15.166.15.074 0 .149-.074.164-.15l.226-2.63-.226-2.79c-.015-.075-.09-.15-.165-.15m.945-.135c-.104 0-.18.09-.194.179l-.18 2.925.18 2.58c.015.09.09.165.194.165.09 0 .18-.074.194-.179l.209-2.565-.209-2.926c-.015-.104-.09-.194-.18-.194m.959-.045c-.104 0-.194.09-.209.195l-.164 2.97.164 2.535c.015.119.105.194.209.194.119 0 .195-.09.21-.194l.193-2.535-.193-2.97c-.015-.104-.091-.195-.21-.195m.975-.119c-.119 0-.21.105-.225.209l-.15 3.09.15 2.49c.015.119.106.225.225.225.105 0 .21-.105.225-.225l.165-2.49-.165-3.09c-.015-.12-.12-.225-.225-.225m.959-.135c-.135 0-.24.12-.255.24l-.135 3.225.135 2.445c.015.135.12.255.255.255s.24-.12.255-.24l.15-2.445-.15-3.225c-.015-.135-.12-.255-.255-.255m.975-.074c-.135 0-.255.119-.255.254l-.15 3.3.15 2.415c0 .119.12.24.255.24.119 0 .24-.12.255-.24l.164-2.415-.164-3.3c-.015-.135-.121-.254-.255-.254m.959-.061c-.149 0-.27.136-.285.27l-.12 3.361.12 2.385c.015.15.135.27.285.27.135 0 .27-.12.285-.27l.135-2.385-.135-3.36c-.015-.136-.15-.271-.285-.271m.975-.105c-.164 0-.284.135-.284.299l-.121 3.465.121 2.355c.015.15.135.285.284.285.15 0 .271-.135.286-.285l.149-2.355-.149-3.465c-.015-.164-.136-.299-.286-.299m1.485 0c-.164 0-.299.135-.299.299l-.135 3.465.135 2.355c0 .15.135.285.299.285.15 0 .285-.135.285-.285l.164-2.355-.164-3.465c0-.164-.135-.299-.285-.299m8.985-.209c-.36-.074-.705-.119-1.065-.119-2.445 0-4.485 1.845-4.8 4.26l-.015.209v5.415c0 .209.164.375.375.375h5.505c1.845 0 3.345-1.5 3.345-3.345 0-1.845-1.5-3.345-3.345-3.345z" fill="#FF5500"/></svg>
